<svg version="1.1" id="svg-draw" xmlns="http://www.w3.org/2000/svg" xmlns:xlink="http://www.w3.org/1999/xlink" x="0px" y="0px" width="100%" height="100%" viewBox="0 0 200 320" xml:space="preserve">
	<g id="svg-content">
		<g transform="matrix(0.70,0,0,0.70,30,40)">
			
<path id="XMLID_77_" fill-rule="evenodd" clip-rule="evenodd" fill="#F19200" d="M196.7,100c-10-10-39.8,3.5-66.5,30.2
	c-1.6,1.6-3.1,3.2-4.6,4.8c0.1-2.3,0.1-4.5,0.1-6.9c0-37.8-11.5-68.4-25.6-68.4c-14.2,0-25.6,30.6-25.6,68.4c0,2.3,0,4.5,0.1,6.7
	c-1.5-1.7-3.1-3.3-4.8-4.9C43.1,103.2,13.3,89.7,3.3,99.7c-10,10,3.5,39.8,30.2,66.5c21,21,44,33.9,57.7,33.5
	c-7.7-1.1-19-7.9-29.5-18.4c-14.8-14.8-22.3-31.3-16.8-36.9c5.6-5.6,22.1,2,36.9,16.8c0.9,0.9,1.8,1.8,2.6,2.7
	c0-1.2-0.1-2.5-0.1-3.7c0-20.9,6.4-37.9,14.2-37.9c7.9,0,14.2,17,14.2,37.9c0,1.3,0,2.6-0.1,3.8c0.8-0.9,1.7-1.8,2.6-2.7
	c14.8-14.8,31.3-22.3,36.9-16.8c5.6,5.6-2,22.1-16.8,36.9c-10.3,10.3-21.3,17-29,18.3c13.3,2.2,37.8-10.9,60.1-33.3
	C193.2,139.8,206.7,110,196.7,100z"/>

		</g>
		<text font-family="Lucida Grande, Microsoft Yahei" letter-spacing="4" text-anchor="middle" fill="#3e3a39" stroke="#3e3a39" stroke-width="1" font-size="50" dx="100" dy="250">xh</text>
		<text font-family="Lucida Grande, Microsoft Yahei" text-anchor="middle" fill="#888888" font-size="23" dx="100" dy="285"></text>
	</g>
</svg>